<?xml version='1.0' encoding='utf-8'?>
<svg xmlns="http://www.w3.org/2000/svg" viewBox="0 0 500 500"> <path d="m274.76 333.77 84.17 26.684c15.589-14.389 29.979-29.978 45.567-40.771 20.386 5.996 73.148 19.186 81.542 22.783l-20.385-68.35 31.177-55.161-31.177-52.762 14.389-76.745-79.143 21.584-63.554-41.97-79.144 53.962-74.347-49.165-56.36 50.364-82.74-14.39 34.775 69.55-40.771 64.754 40.771 41.97-25.182 82.741 76.744-32.377 46.768 49.165 96.9-51.866z" fill-opacity=".5" fill-rule="evenodd"/> <path d="m259.98 313.83 84.17 26.684c15.589-14.389 29.979-29.978 45.567-40.771 20.386 5.996 73.148 19.186 81.542 22.783l-20.385-68.35 31.177-55.161-31.177-52.762 14.389-76.745-79.143 21.584-63.554-41.97-79.144 53.962-74.347-49.165-56.36 50.364-82.74-14.39 34.775 69.55-40.771 64.754 40.771 41.97-25.182 82.741 76.744-32.377 46.768 49.165 96.9-51.866z" fill="#fff" fill-rule="evenodd" stroke="#000" stroke-linejoin="round" stroke-width="10"/> </svg>